<svg width="1229" height="984" viewBox="0 0 1229 984" fill="none" xmlns="http://www.w3.org/2000/svg">
<path fill-rule="evenodd" clip-rule="evenodd" d="M1347.18 151.456C1396.84 247.735 1368.97 373.174 1282.4 498.593C1195.92 623.904 1051.22 748.545 868.76 842.658C686.298 936.77 500.857 982.412 348.613 980.238C196.238 978.061 77.8721 928.049 28.2119 831.77C-21.4482 735.491 6.42131 610.053 92.9833 484.633C179.47 359.323 324.165 234.682 506.627 140.569C689.089 46.4563 874.531 0.814377 1026.77 2.98912C1179.15 5.16569 1297.52 55.1772 1347.18 151.456ZM1349.6 150.208C1450.29 345.421 1235.57 656.525 870.009 845.078C504.45 1033.63 126.481 1028.23 25.7911 833.019C-74.8989 637.806 139.82 326.701 505.378 138.148C870.937 -50.4049 1248.91 -45.0058 1349.6 150.208ZM1216.32 464.333C1287.94 360.565 1310.9 256.92 1269.91 177.446C1228.91 97.973 1131.15 56.5966 1005.08 54.7957C879.14 52.9968 725.703 90.755 574.711 168.636C423.719 246.516 304.002 349.65 232.458 453.31C160.838 557.078 137.877 660.724 178.869 740.197C219.861 819.67 317.624 861.047 443.695 862.848C569.634 864.647 723.072 826.888 874.064 749.008C1025.06 671.127 1144.77 567.994 1216.32 464.333ZM875.312 751.429C1177.93 595.34 1355.68 337.8 1272.33 176.198C1188.97 14.5954 876.081 10.1259 573.462 166.215C270.844 322.304 93.0947 579.843 176.448 741.446C259.802 903.048 572.694 907.517 875.312 751.429ZM1209.92 194.187C1243.78 259.83 1224.86 345.54 1165.54 431.491C1106.29 517.334 1007.13 602.768 882.034 667.29C756.941 731.813 629.842 763.083 525.549 761.593C421.125 760.102 340.318 725.832 306.459 660.188C272.601 594.545 291.523 508.835 350.845 422.884C410.092 337.042 509.254 251.607 634.347 187.085C759.44 122.563 886.54 91.2923 990.832 92.782C1095.26 94.2737 1176.06 128.544 1209.92 194.187ZM1212.34 192.938C1281.43 326.88 1134.1 540.339 883.283 669.711C632.461 799.084 373.125 795.379 304.038 661.437C234.952 527.495 382.277 314.036 633.098 184.664C883.92 55.2918 1143.26 58.9963 1212.34 192.938ZM1159.56 222.717C1185.94 273.867 1171.25 340.781 1124.82 408.06C1078.46 475.231 1000.84 542.117 902.886 592.64C804.934 643.164 705.436 667.635 623.828 666.469C542.089 665.302 479.05 638.479 452.668 587.329C426.285 536.179 440.974 469.265 487.409 401.986C533.769 334.815 611.39 267.929 709.342 217.406C807.295 166.882 906.793 142.411 988.401 143.577C1070.14 144.744 1133.18 171.567 1159.56 222.717ZM1161.98 221.468C1216.12 326.424 1100.68 493.687 904.135 595.061C707.595 696.436 504.382 693.533 450.247 588.578C396.111 483.622 511.553 316.359 708.094 214.985C904.634 113.61 1107.85 116.513 1161.98 221.468Z" fill="url(#paint0_linear_0_18)"/>
<defs>
<linearGradient id="paint0_linear_0_18" x1="1155.01" y1="-33.617" x2="401.894" y2="210.047" gradientUnits="userSpaceOnUse">
<stop stop-color="#F098DD"/>
<stop offset="1" stop-color="#171528"/>
</linearGradient>
</defs>
</svg>
